# xmcd
# 
# Track frame offsets:
#     150
#     26110
#     44110
#     62244
#     85000
#     114409
#     140495
# 
# Disc length: 2124
# 
# Revision: 0
# Processed by: cddbd v1.5.2PL0 Copyright (c) Steve Scherf et al.
# Submitted via: fre:ac v1.1beta1pre3
# 
DISCID=61084a07
DTITLE=如月千早(CV.今井麻美) - THE IDOLM@STER MASTER ARTIST 3 07 如月千早
DYEAR=2015
DGENRE=
TTITLE0=細氷 (M@STER VERSION)
TTITLE1=Fate of the World
TTITLE2=数え歌
TTITLE3=恋人がサンタクロース
TTITLE4=静かな夜に願いを… (M@STER VERSION)
TTITLE5=細氷 (M@STER VERSION) (オリジナル・カラオケ)
TTITLE6=ONLY MY NOTE (M@STER VERSION)
EXTD=
EXTT0=
EXTT1=
EXTT2=
EXTT3=
EXTT4=
EXTT5=
EXTT6=
PLAYORDER=
